<svg width="135" height="40" viewBox="0 0 135 40" fill="none" xmlns="http://www.w3.org/2000/svg">
<path d="M47.8594 20.3516H43.3594V25H41.0156V13.625H48.4219V15.5234H43.3594V18.4609H47.8594V20.3516ZM52.0156 25H49.75V16.5469H52.0156V25ZM49.6172 14.3594C49.6172 14.0208 49.7292 13.7422 49.9531 13.5234C50.1823 13.3047 50.4922 13.1953 50.8828 13.1953C51.2682 13.1953 51.5755 13.3047 51.8047 13.5234C52.0339 13.7422 52.1484 14.0208 52.1484 14.3594C52.1484 14.7031 52.0312 14.9844 51.7969 15.2031C51.5677 15.4219 51.263 15.5312 50.8828 15.5312C50.5026 15.5312 50.1953 15.4219 49.9609 15.2031C49.7318 14.9844 49.6172 14.7031 49.6172 14.3594ZM58.4609 22.6641C58.4609 22.388 58.3229 22.1719 58.0469 22.0156C57.776 21.8542 57.3385 21.7109 56.7344 21.5859C54.724 21.1641 53.7188 20.3099 53.7188 19.0234C53.7188 18.2734 54.0286 17.6484 54.6484 17.1484C55.2734 16.6432 56.0885 16.3906 57.0938 16.3906C58.1667 16.3906 59.0234 16.6432 59.6641 17.1484C60.3099 17.6536 60.6328 18.3099 60.6328 19.1172H58.375C58.375 18.7943 58.2708 18.5286 58.0625 18.3203C57.8542 18.1068 57.5286 18 57.0859 18C56.7057 18 56.4115 18.0859 56.2031 18.2578C55.9948 18.4297 55.8906 18.6484 55.8906 18.9141C55.8906 19.1641 56.0078 19.3672 56.2422 19.5234C56.4818 19.6745 56.8828 19.8073 57.4453 19.9219C58.0078 20.0312 58.4818 20.1562 58.8672 20.2969C60.0599 20.7344 60.6562 21.4922 60.6562 22.5703C60.6562 23.3411 60.3255 23.9661 59.6641 24.4453C59.0026 24.9193 58.1484 25.1562 57.1016 25.1562C56.3932 25.1562 55.763 25.0312 55.2109 24.7812C54.6641 24.526 54.2344 24.1797 53.9219 23.7422C53.6094 23.2995 53.4531 22.8229 53.4531 22.3125H55.5938C55.6146 22.7135 55.763 23.0208 56.0391 23.2344C56.3151 23.4479 56.6849 23.5547 57.1484 23.5547C57.5807 23.5547 57.9062 23.474 58.125 23.3125C58.349 23.1458 58.4609 22.9297 58.4609 22.6641ZM64.3203 17.4688C64.9193 16.75 65.6719 16.3906 66.5781 16.3906C68.4115 16.3906 69.3411 17.4557 69.3672 19.5859V25H67.1094V19.6484C67.1094 19.1641 67.0052 18.8073 66.7969 18.5781C66.5885 18.3438 66.2422 18.2266 65.7578 18.2266C65.0964 18.2266 64.6172 18.4818 64.3203 18.9922V25H62.0625V13H64.3203V17.4688ZM73.4531 25H71.1875V16.5469H73.4531V25ZM71.0547 14.3594C71.0547 14.0208 71.1667 13.7422 71.3906 13.5234C71.6198 13.3047 71.9297 13.1953 72.3203 13.1953C72.7057 13.1953 73.013 13.3047 73.2422 13.5234C73.4714 13.7422 73.5859 14.0208 73.5859 14.3594C73.5859 14.7031 73.4688 14.9844 73.2344 15.2031C73.0052 15.4219 72.7005 15.5312 72.3203 15.5312C71.9401 15.5312 71.6328 15.4219 71.3984 15.2031C71.1693 14.9844 71.0547 14.7031 71.0547 14.3594ZM77.3984 16.5469L77.4688 17.5234C78.0729 16.7682 78.8828 16.3906 79.8984 16.3906C80.7943 16.3906 81.4609 16.6536 81.8984 17.1797C82.3359 17.7057 82.5599 18.4922 82.5703 19.5391V25H80.3125V19.5938C80.3125 19.1146 80.2083 18.7682 80 18.5547C79.7917 18.3359 79.4453 18.2266 78.9609 18.2266C78.3255 18.2266 77.849 18.4974 77.5312 19.0391V25H75.2734V16.5469H77.3984ZM83.9609 20.7109C83.9609 19.4141 84.2682 18.3698 84.8828 17.5781C85.5026 16.7865 86.3359 16.3906 87.3828 16.3906C88.3099 16.3906 89.0312 16.7083 89.5469 17.3438L89.6406 16.5469H91.6875V24.7188C91.6875 25.4583 91.5182 26.1016 91.1797 26.6484C90.8464 27.1953 90.375 27.612 89.7656 27.8984C89.1562 28.1849 88.4427 28.3281 87.625 28.3281C87.0052 28.3281 86.401 28.2031 85.8125 27.9531C85.224 27.7083 84.7786 27.3906 84.4766 27L85.4766 25.625C86.0391 26.2552 86.7214 26.5703 87.5234 26.5703C88.1224 26.5703 88.5885 26.4089 88.9219 26.0859C89.2552 25.7682 89.4219 25.3151 89.4219 24.7266V24.2734C88.901 24.862 88.2161 25.1562 87.3672 25.1562C86.3516 25.1562 85.5286 24.7604 84.8984 23.9688C84.2734 23.1719 83.9609 22.1172 83.9609 20.8047V20.7109ZM86.2188 20.875C86.2188 21.6406 86.3724 22.2422 86.6797 22.6797C86.987 23.112 87.4089 23.3281 87.9453 23.3281C88.6328 23.3281 89.125 23.0703 89.4219 22.5547V19C89.1198 18.4844 88.6328 18.2266 87.9609 18.2266C87.4193 18.2266 86.9922 18.4479 86.6797 18.8906C86.3724 19.3333 86.2188 19.9948 86.2188 20.875ZM93.5469 23.8906C93.5469 23.5312 93.6667 23.2396 93.9062 23.0156C94.151 22.7917 94.4557 22.6797 94.8203 22.6797C95.1901 22.6797 95.4948 22.7917 95.7344 23.0156C95.9792 23.2396 96.1016 23.5312 96.1016 23.8906C96.1016 24.2448 95.9818 24.5339 95.7422 24.7578C95.5026 24.9766 95.1953 25.0859 94.8203 25.0859C94.4505 25.0859 94.1458 24.9766 93.9062 24.7578C93.6667 24.5339 93.5469 24.2448 93.5469 23.8906ZM100.578 23.1172H105.555V25H98.2344V13.625H100.578V23.1172ZM109.141 25H106.875V16.5469H109.141V25ZM106.742 14.3594C106.742 14.0208 106.854 13.7422 107.078 13.5234C107.307 13.3047 107.617 13.1953 108.008 13.1953C108.393 13.1953 108.701 13.3047 108.93 13.5234C109.159 13.7422 109.273 14.0208 109.273 14.3594C109.273 14.7031 109.156 14.9844 108.922 15.2031C108.693 15.4219 108.388 15.5312 108.008 15.5312C107.628 15.5312 107.32 15.4219 107.086 15.2031C106.857 14.9844 106.742 14.7031 106.742 14.3594ZM111.625 25V18.2031H110.367V16.5469H111.625V15.8281C111.625 14.8802 111.896 14.1458 112.438 13.625C112.984 13.099 113.747 12.8359 114.727 12.8359C115.039 12.8359 115.422 12.888 115.875 12.9922L115.852 14.7422C115.664 14.6953 115.435 14.6719 115.164 14.6719C114.315 14.6719 113.891 15.0703 113.891 15.8672V16.5469H115.57V18.2031H113.891V25H111.625ZM120.445 25.1562C119.206 25.1562 118.195 24.776 117.414 24.0156C116.638 23.2552 116.25 22.2422 116.25 20.9766V20.7578C116.25 19.9089 116.414 19.151 116.742 18.4844C117.07 17.8125 117.534 17.2969 118.133 16.9375C118.737 16.5729 119.424 16.3906 120.195 16.3906C121.352 16.3906 122.26 16.7552 122.922 17.4844C123.589 18.2135 123.922 19.2474 123.922 20.5859V21.5078H118.539C118.612 22.0599 118.831 22.5026 119.195 22.8359C119.565 23.1693 120.031 23.3359 120.594 23.3359C121.464 23.3359 122.143 23.0208 122.633 22.3906L123.742 23.6328C123.404 24.112 122.945 24.487 122.367 24.7578C121.789 25.0234 121.148 25.1562 120.445 25.1562ZM120.188 18.2188C119.74 18.2188 119.375 18.3698 119.094 18.6719C118.818 18.974 118.641 19.4062 118.562 19.9688H121.703V19.7891C121.693 19.2891 121.557 18.9036 121.297 18.6328C121.036 18.3568 120.667 18.2188 120.188 18.2188Z" fill="white"/>
<path d="M11.8277 20.3542C11.7547 20.7171 11.9897 21.07 12.3526 21.1423L13.4928 21.3706L12.4838 22.3797C11.7245 23.1382 10.4022 23.1382 9.64289 22.3797C9.26329 22.0001 9.05434 21.4959 9.05434 20.9596C9.05434 20.4226 9.26321 19.9184 9.64289 19.5395L14.2112 14.9705C14.2454 15.0127 14.2768 15.0549 14.3103 15.0971L23.9324 10.214C21.4055 7.94356 18.88 6.05143 16.6283 4.75523C14.534 3.54934 12.8293 2.95616 11.5719 2.97421C11.5846 2.86711 11.6034 2.76197 11.6034 2.65283C11.6034 1.93772 11.3248 1.26482 10.8187 0.759365C9.80766 -0.252959 8.04335 -0.252959 7.03103 0.759365C6.52549 1.2649 6.24695 1.9378 6.24695 2.65283C6.24695 3.36793 6.52549 4.04083 7.03103 4.54628C7.53719 5.05245 8.20946 5.33099 8.92519 5.33099C9.033 5.33099 9.13681 5.31224 9.24258 5.30015C9.20311 7.3871 10.8669 10.5467 13.387 13.9019L8.69616 18.5927C7.91279 19.3741 6.63864 19.3741 5.85527 18.5927C5.0726 17.8094 5.0726 16.5345 5.85527 15.7511L6.8643 14.7428L7.09262 15.883C7.16496 16.2459 7.51648 16.4836 7.8807 16.4079C8.24359 16.335 8.47859 15.9828 8.40562 15.6199L7.68721 12.0264L4.90862 14.8044C3.6037 16.1093 3.6037 18.2339 4.90862 19.5395C5.56142 20.1916 6.41847 20.5177 7.27615 20.5177C7.43951 20.5177 7.60153 20.4949 7.76356 20.4714C7.7401 20.6321 7.71538 20.7935 7.71538 20.9596C7.71538 21.8541 8.06422 22.6944 8.69624 23.3264C9.32896 23.9584 10.1692 24.3072 11.0631 24.3072C11.9576 24.3072 12.7985 23.9584 13.4306 23.3264L16.2092 20.5478L12.6151 19.8294C12.2515 19.7543 11.8993 19.9913 11.8277 20.3542ZM9.87192 3.59948C9.36639 4.10564 8.48463 4.10564 7.97846 3.59948C7.72534 3.34636 7.58607 3.0103 7.58607 2.65275C7.58607 2.29519 7.72534 1.95906 7.97846 1.70602C8.23088 1.4529 8.56701 1.31363 8.92519 1.31363C9.28275 1.31363 9.61888 1.4529 9.87192 1.70602C10.125 1.95914 10.2643 2.29519 10.2643 2.65275C10.2643 3.0103 10.125 3.34643 9.87192 3.59948ZM14.133 7.86047C14.3948 7.59864 14.8186 7.59864 15.0797 7.86047C15.3416 8.1223 15.3416 8.54607 15.0797 8.8072C14.8186 9.06903 14.3947 9.06903 14.133 8.8072C13.8712 8.54607 13.8712 8.1223 14.133 7.86047Z" fill="white"/>
<path d="M31.5555 36.0476C31.4831 36.4105 31.7182 36.7627 32.0804 36.8357L33.2206 37.064L32.2116 38.0723C31.453 38.8309 30.1306 38.8309 29.3714 38.0723C28.588 37.289 28.588 36.0148 29.3714 35.2314L35.4375 29.1653C36.5731 28.0298 36.174 25.6938 34.2825 22.4089C33.6498 21.3102 32.8731 20.1458 31.9826 18.9487L22.615 23.6322C24.722 25.4239 26.7977 26.9258 28.6817 28.0104C30.379 28.9879 31.8186 29.5597 32.9749 29.7344L28.4246 34.2847C27.6653 35.0433 26.343 35.0433 25.5837 34.2847C25.2041 33.9057 24.9952 33.4016 24.9952 32.8646C24.9952 32.3276 25.204 31.8235 25.5837 31.4445L26.5927 30.4355L26.8211 31.5757C26.8927 31.938 27.2449 32.1743 27.6084 32.1006C27.9713 32.0283 28.2063 31.6762 28.134 31.3133L27.4149 27.7185L24.637 30.4978C24.005 31.1292 23.6561 31.9702 23.6561 32.8646C23.6561 33.7592 24.005 34.6001 24.637 35.2314C25.269 35.8642 26.1099 36.2123 27.0038 36.2123C27.1698 36.2123 27.3312 36.1882 27.4919 36.1648C27.3439 37.1765 27.6479 38.2424 28.4246 39.0191C29.0566 39.6518 29.8969 39.9999 30.7914 39.9999C31.6859 39.9999 32.5262 39.6518 33.1589 39.0191L35.9375 36.2411L32.3434 35.5227C31.9786 35.4478 31.6278 35.6847 31.5555 36.0476Z" fill="white"/>
<path d="M26.4422 12.5952C25.958 12.1111 25.4706 11.6424 24.9819 11.1831L15.1804 16.1572C16.3227 17.5143 17.5687 18.8715 18.8676 20.1697C19.7461 21.0488 20.6359 21.8864 21.5244 22.6799L31.1505 17.8672C29.7778 16.1277 28.1877 14.3407 26.4422 12.5952Z" fill="white"/>
</svg>
